<?xml version="1.0" encoding="utf-8"?>
<!-- Generator: Adobe Illustrator 27.5.0, SVG Export Plug-In . SVG Version: 6.00 Build 0)  -->
<svg version="1.1" xmlns="http://www.w3.org/2000/svg" xmlns:xlink="http://www.w3.org/1999/xlink" x="0px" y="0px"
	 viewBox="0 0 500 500" style="enable-background:new 0 0 500 500;" xml:space="preserve">
<g id="BACKGROUND">
	<rect style="fill:#FFFFFF;" width="500" height="500"/>
</g>
<g id="OBJECTS">
	<path style="fill:#92278F;" d="M364.655,395.947h-229.31c-5.46,0-9.886-4.426-9.886-9.886l0,0c0-5.46,4.426-9.886,9.886-9.886
		h229.31c5.46,0,9.886,4.426,9.886,9.886l0,0C374.542,391.52,370.115,395.947,364.655,395.947z"/>
	<g>
		<path style="fill:#F94E54;" d="M213.683,105.82c-8.615,11.539-12.563,27.923-5.448,40.444
			c19.921,35.057,75.905,29.6,104.284,9.868c24.431-16.987,18.541-46.573-5.057-61.106C278.933,77.457,235.222,76.97,213.683,105.82
			z"/>
		<path style="fill:#92278F;" d="M388.624,199.665c-6.964-9.927-19.22-17.802-31.486-16.212
			c-34.341,4.451-45.896,48.123-37.892,75.345c6.891,23.436,32.748,27.881,51.372,14.517
			C393.134,257.159,406.034,224.485,388.624,199.665z"/>
		<path style="fill:#F8931F;" d="M144.513,173.148c-14.093,4.728-27.354,13.112-35.388,27.009
			c-27.112,46.9,22.123,93.49,56.252,105.788c30.561,11.013,73.689,14.21,100.04-13.333c10.374-10.843,16.131-25.669,17.828-41.265
			c3.769-34.633-17.738-59.589-43.756-71.012c-20.997-9.219-46.602-13.813-69.385-12.169
			C161.922,168.757,153.064,170.279,144.513,173.148z"/>
		<path style="fill:#F8C91F;" d="M131.974,225.374c0.843,6.408,2.617,12.854,5.447,19.234
			c24.103,54.348,92.985,69.279,144.962,58.985c42.868-8.491,91.924-41.444,89.64-95.519c-1.134-26.852-17.447-47.893-37.308-60.641
			c-44.549-28.594-102.788-32.881-152.642-7.345C150.847,156.082,127.345,190.168,131.974,225.374z"/>
		<path style="fill:#92278F;" d="M312.519,156.133c5.975-4.155,10.125-9.065,12.657-14.322
			c-36.29-19.706-80.017-24.273-120.606-11.063c-0.148,5.412,0.953,10.744,3.664,15.516
			C228.156,181.321,284.14,175.864,312.519,156.133z"/>
		<path style="fill:#F94E54;" d="M265.417,292.613c10.374-10.843,16.131-25.669,17.828-41.265
			c3.769-34.633-17.738-59.589-43.756-71.012c-20.997-9.219-46.602-13.814-69.385-12.169c-7.947,0.574-16.529,2.037-24.851,4.748
			c-10.292,15.493-15.731,33.819-13.28,52.46c0.843,6.408,2.617,12.854,5.447,19.234c18.749,42.276,64.593,60.698,108.499,61.952
			C253.021,303.233,259.625,298.667,265.417,292.613z"/>
		<path style="fill:#F8C91F;" d="M272.426,301.21l33.119,26.032c6.751,5.307,16.718,1.377,18.031-7.11l5.562-35.953L272.426,301.21z
			"/>
		<path style="fill:#92278F;" d="M273.614,164.884l20.258,15.923c4.13,3.246,10.226,0.842,11.029-4.349l3.402-21.991
			L273.614,164.884z"/>
		<path style="fill:#F94E54;" d="M280.591,246.034l16.955-21.855c3.456-4.455,0.834-10.983-4.744-11.81l-23.631-3.502
			L280.591,246.034z"/>
		<path style="fill:#4A2559;" d="M357.138,183.453c-34.341,4.451-45.896,48.123-37.892,75.345
			c3.04,10.341,9.776,16.979,17.952,20.027c21.061-16.462,36.113-40.244,34.824-70.75c-0.366-8.656-2.316-16.704-5.447-24.07
			C363.491,183.275,360.316,183.041,357.138,183.453z"/>
		<path style="fill:#92278F;" d="M360.921,162.071c5.661,16.25,44.602,2.71,36.75-15.04
			C390.081,129.873,355.618,146.845,360.921,162.071z"/>
		<path style="fill:#92278F;" d="M175.674,134.725c14.93-8.556-5.546-44.339-21.547-33.354
			C138.659,111.99,161.684,142.74,175.674,134.725z"/>
		<path style="fill:#4A2559;" d="M343.472,144.124c8.42,9.391,28.019-10.504,17.805-20.3
			C351.405,114.354,335.584,135.325,343.472,144.124z"/>
		<path style="fill:#4A2559;" d="M132.579,141.054c-5.596,11.304,20.152,22.119,25.458,9
			C163.166,137.371,137.822,130.463,132.579,141.054z"/>
		<path style="fill:#4A2559;" d="M319.857,246.344l-10.641,16.361c-2.169,3.335,0.057,7.772,4.027,8.026l16.821,1.078
			L319.857,246.344z"/>
	</g>
</g>
<g id="TEXT">
	<text transform="matrix(1 0 0 1 75.3002 368.9875)" style="fill:#4A2559; font-family:'Montserrat-Bold'; font-size:38.8354px;">COMPANY NAME</text>
	<g>
		
			<text transform="matrix(1 0 0 1 149.1371 392.2921)" style="fill:#FFFFFF; font-family:'Quicksand-Bold'; font-size:17.4187px; letter-spacing:1;">YOUR TAGLINE HERE</text>
	</g>
</g>
</svg>
